<svg xmlns="http://www.w3.org/2000/svg">
<!-- Icon sprite: <svg class="ic"><use href="/assets/icons.svg#name"/></svg> -->
<symbol id="download" viewBox="0 0 24 24" fill="none" stroke="currentColor" stroke-width="2" stroke-linecap="round" stroke-linejoin="round"><path d="M12 3v12M7 10l5 5 5-5M5 21h14"/></symbol>
<symbol id="github" viewBox="0 0 24 24"><path fill="currentColor" d="M12 .5a11.5 11.5 0 0 0-3.6 22.4c.6.1.8-.3.8-.6v-2c-3.2.7-3.9-1.5-3.9-1.5-.5-1.3-1.3-1.7-1.3-1.7-1-.7.1-.7.1-.7 1.2.1 1.8 1.2 1.8 1.2 1 1.8 2.8 1.3 3.5 1 .1-.8.4-1.3.7-1.6-2.6-.3-5.3-1.3-5.3-5.7 0-1.3.5-2.3 1.2-3.1-.1-.3-.5-1.5.1-3.1 0 0 1-.3 3.2 1.2a11 11 0 0 1 5.8 0c2.2-1.5 3.2-1.2 3.2-1.2.6 1.6.2 2.8.1 3.1.8.8 1.2 1.9 1.2 3.1 0 4.4-2.7 5.4-5.3 5.7.4.4.8 1.1.8 2.2v3.3c0 .3.2.7.8.6A11.5 11.5 0 0 0 12 .5z"/></symbol>
<symbol id="discord" viewBox="0 0 24 24"><path fill="currentColor" d="M20.3 4.4A19.8 19.8 0 0 0 15.4 3l-.6 1.3a18.4 18.4 0 0 0-5.6 0L8.6 3a19.7 19.7 0 0 0-4.9 1.5C.6 9.1-.3 13.6.1 18.1a19.9 19.9 0 0 0 6 3l1.3-2.1a13 13 0 0 1-2-1l.5-.4a14.2 14.2 0 0 0 12.2 0l.5.4a13 13 0 0 1-2 1l1.3 2.1a19.8 19.8 0 0 0 6-3c.5-5.2-.9-9.7-3.6-13.7zM8 15.3c-1.2 0-2.2-1.1-2.2-2.4S6.8 10.5 8 10.5s2.2 1.1 2.2 2.4-1 2.4-2.2 2.4zm8 0c-1.2 0-2.2-1.1-2.2-2.4s1-2.4 2.2-2.4 2.2 1.1 2.2 2.4-1 2.4-2.2 2.4z"/></symbol>
<symbol id="eye" viewBox="0 0 24 24" fill="none" stroke="currentColor" stroke-width="2" stroke-linecap="round" stroke-linejoin="round"><path d="M2 12s3-8 10-8 10 8 10 8-3 8-10 8S2 12 2 12z"/><circle cx="12" cy="12" r="3"/></symbol>
<symbol id="eye-off" viewBox="0 0 24 24" fill="none" stroke="currentColor" stroke-width="2" stroke-linecap="round" stroke-linejoin="round"><path d="M9.9 4.2A10 10 0 0 1 12 4c7 0 10 8 10 8a17 17 0 0 1-3.2 4.3M6.6 6.6A17 17 0 0 0 2 12s3 8 10 8a9.7 9.7 0 0 0 5.4-1.6M9.9 9.9a3 3 0 0 0 4.2 4.2M2 2l20 20"/></symbol>
<symbol id="image" viewBox="0 0 24 24" fill="none" stroke="currentColor" stroke-width="2" stroke-linecap="round" stroke-linejoin="round"><rect x="3" y="3" width="18" height="18" rx="2"/><circle cx="9" cy="9" r="2"/><path d="m21 15-5-5L5 21"/></symbol>
<symbol id="image-off" viewBox="0 0 24 24" fill="none" stroke="currentColor" stroke-width="2" stroke-linecap="round" stroke-linejoin="round"><rect x="3" y="3" width="18" height="18" rx="2"/><path d="m3 16 5-5 4 4M14 13l2-2 5 5M3 3l18 18"/></symbol>
<symbol id="chip" viewBox="0 0 24 24" fill="none" stroke="currentColor" stroke-width="2" stroke-linecap="round" stroke-linejoin="round"><rect x="5" y="5" width="14" height="14" rx="2"/><rect x="9" y="9" width="6" height="6"/><path d="M9 2v3M15 2v3M9 19v3M15 19v3M2 9h3M2 15h3M19 9h3M19 15h3"/></symbol>
<symbol id="hammer" viewBox="0 0 24 24" fill="none" stroke="currentColor" stroke-width="2" stroke-linecap="round" stroke-linejoin="round"><path d="m14 13-8.5 8.5a2.1 2.1 0 0 1-3-3L11 10M16 16l6-6M8 8l6-6M9 7l8 8M21 11l-8-8"/></symbol>
<symbol id="lock" viewBox="0 0 24 24" fill="none" stroke="currentColor" stroke-width="2" stroke-linecap="round" stroke-linejoin="round"><rect x="4" y="11" width="16" height="10" rx="2"/><path d="M8 11V7a4 4 0 0 1 8 0v4"/></symbol>
<symbol id="copy" viewBox="0 0 24 24" fill="none" stroke="currentColor" stroke-width="2" stroke-linecap="round" stroke-linejoin="round"><rect x="9" y="9" width="12" height="12" rx="2"/><path d="M5 15H4a1 1 0 0 1-1-1V4a1 1 0 0 1 1-1h10a1 1 0 0 1 1 1v1"/></symbol>
<symbol id="check" viewBox="0 0 24 24" fill="none" stroke="currentColor" stroke-width="2" stroke-linecap="round" stroke-linejoin="round"><path d="M20 6 9 17l-5-5"/></symbol>
<symbol id="back" viewBox="0 0 24 24" fill="none" stroke="currentColor" stroke-width="2" stroke-linecap="round" stroke-linejoin="round"><path d="M19 12H5M12 19l-7-7 7-7"/></symbol>
<symbol id="up" viewBox="0 0 24 24" fill="none" stroke="currentColor" stroke-width="2" stroke-linecap="round" stroke-linejoin="round"><path d="M12 19V5M5 12l7-7 7 7"/></symbol>
<symbol id="flag" viewBox="0 0 24 24" fill="none" stroke="currentColor" stroke-width="2" stroke-linecap="round" stroke-linejoin="round"><path d="M4 22V4a1 1 0 0 1 1-1h12l-2 5 2 5H5"/></symbol>
<symbol id="trash" viewBox="0 0 24 24" fill="none" stroke="currentColor" stroke-width="2" stroke-linecap="round" stroke-linejoin="round"><path d="M3 6h18M8 6V4h8v2M6 6l1 15h10l1-15M10 11v6M14 11v6"/></symbol>
<symbol id="list" viewBox="0 0 24 24" fill="none" stroke="currentColor" stroke-width="2" stroke-linecap="round" stroke-linejoin="round"><path d="M8 6h13M8 12h13M8 18h13M3 6h.01M3 12h.01M3 18h.01"/></symbol>
<symbol id="users" viewBox="0 0 24 24" fill="none" stroke="currentColor" stroke-width="2" stroke-linecap="round" stroke-linejoin="round"><circle cx="9" cy="8" r="4"/><path d="M2 21a7 7 0 0 1 14 0M16 3.1a4 4 0 0 1 0 7.8M22 21a7 7 0 0 0-4-6.3"/></symbol>
<symbol id="user" viewBox="0 0 24 24" fill="none" stroke="currentColor" stroke-width="2" stroke-linecap="round" stroke-linejoin="round"><circle cx="12" cy="8" r="4"/><path d="M5 21a7 7 0 0 1 14 0"/></symbol>
<symbol id="shield" viewBox="0 0 24 24" fill="none" stroke="currentColor" stroke-width="2" stroke-linecap="round" stroke-linejoin="round"><path d="M12 22s8-4 8-10V5l-8-3-8 3v7c0 6 8 10 8 10z"/></symbol>
<symbol id="search-x" viewBox="0 0 24 24" fill="none" stroke="currentColor" stroke-width="2" stroke-linecap="round" stroke-linejoin="round"><circle cx="11" cy="11" r="7"/><path d="m20 20-3.5-3.5M8.5 8.5l5 5M13.5 8.5l-5 5"/></symbol>
<symbol id="alert" viewBox="0 0 24 24" fill="none" stroke="currentColor" stroke-width="2" stroke-linecap="round" stroke-linejoin="round"><path d="M12 3 2 21h20L12 3Z"/><path d="M12 10v4M12 17.5v.01"/></symbol>
<symbol id="inbox" viewBox="0 0 24 24" fill="none" stroke="currentColor" stroke-width="2" stroke-linecap="round" stroke-linejoin="round"><path d="M22 12h-6l-2 3h-4l-2-3H2"/><path d="M5.5 5.1 2 12v6a2 2 0 0 0 2 2h16a2 2 0 0 0 2-2v-6l-3.5-6.9A2 2 0 0 0 16.7 4H7.3a2 2 0 0 0-1.8 1.1z"/></symbol>
<symbol id="plus" viewBox="0 0 24 24" fill="none" stroke="currentColor" stroke-width="2" stroke-linecap="round" stroke-linejoin="round"><path d="M12 5v14M5 12h14"/></symbol>
<symbol id="key" viewBox="0 0 24 24" fill="none" stroke="currentColor" stroke-width="2" stroke-linecap="round" stroke-linejoin="round"><circle cx="7.5" cy="15.5" r="4.5"/><path d="m21 2-9.6 9.6M15.5 7.5l3 3L22 7l-3-3"/></symbol>
<symbol id="logout" viewBox="0 0 24 24" fill="none" stroke="currentColor" stroke-width="2" stroke-linecap="round" stroke-linejoin="round"><path d="M9 21H5a2 2 0 0 1-2-2V5a2 2 0 0 1 2-2h4M16 17l5-5-5-5M21 12H9"/></symbol>
<symbol id="refresh" viewBox="0 0 24 24" fill="none" stroke="currentColor" stroke-width="2" stroke-linecap="round" stroke-linejoin="round"><path d="M21 12a9 9 0 1 1-2.6-6.4M21 4v5h-5"/></symbol>
<symbol id="arrow" viewBox="0 0 24 24" fill="none" stroke="currentColor" stroke-width="2" stroke-linecap="round" stroke-linejoin="round"><path d="M5 12h14M12 5l7 7-7 7"/></symbol>
<symbol id="cloud" viewBox="0 0 24 24" fill="none" stroke="currentColor" stroke-width="2" stroke-linecap="round" stroke-linejoin="round"><path d="M17.5 19H8a6 6 0 1 1 5.7-7.9A4.5 4.5 0 1 1 17.5 19z"/></symbol>
<symbol id="crown" viewBox="0 0 24 24" fill="none" stroke="currentColor" stroke-width="2" stroke-linecap="round" stroke-linejoin="round"><path d="m2 7 5 5 5-8 5 8 5-5-2 12H4z"/></symbol>
</svg>
